# xmcd CD database file
#
# Track frame offsets:
#	150
#	20210
#	40590
#	65805
#	85900
#	103607
#	117087
#	152112
#	190857
#	207379
#	242222
#
# Disc length: 3463 seconds
#
# Revision: 0
# Processed by: cddbd v1.4PL0 Copyright (c) Steve Scherf et al.
# Submitted via: CDex 1.50Beta7
#
DISCID=970d850b
DTITLE=Bobby Dirninger meets Pat Giraud - Bluesy made in Limoges
DYEAR=1900
DGENRE=Blues
TTITLE0=Rock and Jive tonight
TTITLE1=Pacomoon Annie
TTITLE2=Black Night
TTITLE3=Back Door Blues
TTITLE4=I got a Crush on You
TTITLE5=She comes like this
TTITLE6=Meet me in the Morning
TTITLE7=Knockin' on Heaven's Door
TTITLE8=Drown in my own tears
TTITLE9=Night time is the right time
TTITLE10=Bobby meets Pat
EXTD=
EXTT0=
EXTT1=
EXTT2=
EXTT3=
EXTT4=
EXTT5=
EXTT6=
EXTT7=
EXTT8=
EXTT9=
EXTT10=
PLAYORDER=
